<svg width="106" height="154" viewBox="0 0 106 154" fill="none" xmlns="http://www.w3.org/2000/svg">
<path fill-rule="evenodd" clip-rule="evenodd" d="M99.458 53.0851C99.0914 51.9164 98.5812 50.8589 97.8639 49.9366C97.1465 49.0144 96.2698 48.3465 95.2336 47.8456C94.9387 47.6866 94.58 47.5276 94.2771 47.4481C94.2771 47.4481 94.1655 47.3844 94.0619 47.3844C94.0141 47.3844 93.9583 47.3844 93.9025 47.3288C93.8627 47.3288 93.8069 47.3288 93.8069 47.2731L93.0497 47.1141C92.4917 47.0187 91.7744 46.971 90.9454 47.0187C89.718 47.0744 88.634 47.3367 87.6775 47.782C86.6413 48.2908 85.7646 49.0064 85.0472 49.8651C84.3299 50.7874 83.8197 51.7971 83.4531 53.0215C83.1024 54.1823 82.943 55.5022 82.943 56.822C82.943 58.1975 83.1024 59.4696 83.4611 60.6384C83.8277 61.8071 84.3936 62.8646 85.0552 63.7392C85.5733 64.3514 86.1312 64.8523 86.8087 65.3134C87.1116 65.5201 87.3666 65.6712 87.6855 65.8223H87.7253C87.7253 65.8223 87.7731 65.8223 87.7731 65.87C87.8073 65.87 87.8232 65.8859 87.8379 65.9008C87.8506 65.9136 87.8625 65.9256 87.8847 65.9256C88.4028 66.18 88.9687 66.3232 89.5825 66.4345C91.3758 66.7843 92.9142 66.5378 92.9142 66.5378C93.7351 66.4345 94.5083 66.18 95.2256 65.87C96.3017 65.3611 97.1704 64.6535 97.8958 63.7869C98.6131 62.9282 99.1232 61.8548 99.4899 60.6861C99.8406 59.5173 100 58.2452 100 56.8697C100 55.5022 99.7928 54.2301 99.4819 53.0533L99.458 53.0851ZM87.4464 54.1983C87.6536 53.4032 87.9086 52.632 88.2673 52.0197C88.626 51.4155 89.0883 50.9066 89.5984 50.5568C90.1165 50.199 90.7302 50.0002 91.3918 50.0002C92.0613 50.0002 92.6272 50.1434 93.1453 50.5011C93.6554 50.851 94.0619 51.2962 94.4206 51.8687C94.7793 52.4809 95.0423 53.1408 95.2416 53.9518C95.4568 54.7628 95.5604 55.5817 95.5604 56.496V56.7981C95.5604 57.7125 95.4568 58.6268 95.3053 59.4378C95.0981 60.2567 94.843 60.9643 94.4844 61.5845C94.1257 62.1888 93.6634 62.642 93.1453 62.9997C92.6352 63.3575 92.0294 63.5086 91.3519 63.5086C90.6824 63.5086 90.0766 63.3496 89.5586 62.9997C89.0405 62.642 88.5782 62.1888 88.2195 61.5686C87.8529 60.9643 87.5978 60.2567 87.3906 59.4378C87.1913 58.6268 87.1355 57.7125 87.1355 56.7981C87.1913 55.9236 87.2949 55.0172 87.4543 54.2062L87.4464 54.1983ZM76.1999 66.7127L74.2072 68.9946L74 69.2013L74.2072 72H77.2839L80.5199 68.3904V56.9095L80.4243 56.0349L76.1999 58.2134V66.7127Z" fill="white"/>
<path fill-rule="evenodd" clip-rule="evenodd" d="M50.2789 46.2218L48.2657 44.0041L48 43.8154L48.2094 41L51.3097 41.0472L54.6435 44.6175V56.2328L54.5469 56.8776L50.2789 54.6757V46.2218ZM78.8499 49.3438C79.5747 50.2561 80.09 51.302 80.4605 52.458L80.4766 52.4265C80.8389 53.5904 81 54.8487 81 56.2013C81 57.5618 80.8389 58.8201 80.4846 59.9761C80.1142 61.1321 79.5988 62.1938 78.8741 63.0431C78.1493 63.9003 77.2635 64.6002 76.1764 65.1035C75.4517 65.4102 74.6706 65.6618 73.8411 65.7641C73.8411 65.7641 72.287 66.0079 70.4751 65.6618C69.8551 65.5517 69.2833 65.4102 68.7679 65.1585C68.7387 65.1585 68.7246 65.1437 68.7111 65.1294C68.6985 65.1162 68.6865 65.1035 68.6632 65.1035C68.6632 65.0563 68.6069 65.0563 68.6069 65.0563H68.5666C68.2445 64.9069 67.9868 64.7575 67.6808 64.553C67.0044 64.0969 66.4326 63.6014 65.9092 62.9959C65.2408 62.1309 64.6691 61.0849 64.2987 59.9289C63.9444 58.7729 63.7833 57.5146 63.7833 56.1541C63.7833 54.8487 63.9363 53.5433 64.2906 52.3951C64.6611 51.184 65.1764 50.1853 65.9012 49.273C66.6259 48.4237 67.5117 47.7159 68.5586 47.2126C69.5249 46.7723 70.6201 46.5127 71.8602 46.4577C72.6977 46.4105 73.4224 46.4577 73.9861 46.5521L74.7511 46.7093C74.7511 46.7644 74.8075 46.7644 74.8477 46.7644C74.9122 46.8194 74.9605 46.8194 75.0088 46.8194C75.1135 46.8194 75.2262 46.8824 75.2262 46.8824C75.5322 46.961 75.8946 47.1183 76.1925 47.2756C77.2394 47.771 78.1252 48.4316 78.8499 49.3438ZM69.2028 51.4042C68.8404 52.0098 68.5827 52.7726 68.3814 53.559L68.3895 53.5668C68.1828 54.3588 68.1252 55.2427 68.0695 56.0975V56.0975L68.0674 56.1305C68.0674 57.0349 68.1157 57.9393 68.325 58.7414C68.5344 59.5514 68.7921 60.2513 69.1545 60.849C69.5168 61.4624 69.9839 61.9107 70.4993 62.2645C71.0227 62.6106 71.6428 62.7679 72.3272 62.7679C72.9956 62.7679 73.6237 62.6184 74.1391 62.2645C74.6545 61.9107 75.1215 61.4624 75.4758 60.8647C75.8382 60.2513 76.104 59.5514 76.3053 58.7414C76.4663 57.9393 76.5791 57.0349 76.5791 56.1305V55.8317C76.5791 54.9273 76.4663 54.1173 76.257 53.3152C76.0476 52.5131 75.7899 51.8603 75.4275 51.2548C75.0652 50.6886 74.6464 50.2482 74.1391 49.9022C73.6157 49.5483 73.0439 49.4067 72.3675 49.4067C71.683 49.4067 71.071 49.6033 70.5556 49.9572C70.0322 50.3032 69.5652 50.8065 69.2028 51.4042ZM56.9627 46.5363H61.3111V66H56.9627V46.5363Z" fill="white"/>
<path fill-rule="evenodd" clip-rule="evenodd" d="M59.0067 42C57.9064 42 57.0134 42.8981 57.0134 44.0047C57.0134 45.1675 57.9064 46.0576 59.0067 46.0095C60.107 46.0095 61 45.1114 61 44.0047C61 42.8981 60.107 42 59.0067 42ZM32.926 50.1713C33.6436 51.1015 34.1539 52.1681 34.5207 53.3468L34.5366 53.3148C34.8954 54.5016 35.0549 55.7846 35.0549 57.1639C35.0549 58.5512 34.8954 59.8342 34.5446 61.013C34.1778 62.1918 33.6675 63.2743 32.9499 64.1404C32.2323 65.0145 31.3553 65.7281 30.2789 66.2414C29.5613 66.5541 28.7879 66.8107 27.9666 66.915C27.9666 66.915 26.4278 67.1635 24.6338 66.8107C24.0198 66.6984 23.4537 66.5541 22.9355 66.2975C22.8876 66.2975 22.8876 66.2975 22.8398 66.2414C22.8398 66.1932 22.784 66.1932 22.784 66.1932H22.7441C22.4252 66.0409 22.17 65.8885 21.867 65.68C21.1973 65.2149 20.6312 64.7097 20.1129 64.0923C19.3953 63.2102 18.885 62.1918 18.5183 60.9649C18.1595 59.7861 18 58.503 18 57.1158C18 55.7846 18.1595 54.4535 18.5103 53.2827C18.8771 52.0478 19.3874 51.0294 20.105 50.0992C20.8225 49.2331 21.6996 48.5114 22.7361 47.9982C23.6929 47.5491 24.7773 47.2845 26.0052 47.2284C26.8344 47.1803 27.552 47.2284 28.1101 47.3246L28.8676 47.485C28.8676 47.5411 28.9234 47.5411 28.9633 47.5411C29.0271 47.5972 29.0749 47.5972 29.1228 47.5972C29.2264 47.5972 29.338 47.6614 29.338 47.6614C29.641 47.7416 29.9998 47.902 30.2948 48.0623C31.3314 48.5675 32.2084 49.2411 32.926 50.1713ZM53.9835 53.3468C53.6167 52.1681 53.1064 51.1015 52.3888 50.1713C51.6712 49.2411 50.7942 48.5675 49.7576 48.0623C49.4626 47.902 49.1038 47.7416 48.8009 47.6614C48.8009 47.6614 48.6892 47.5972 48.5856 47.5972C48.5377 47.5972 48.4819 47.5972 48.4261 47.5411C48.3783 47.5411 48.3304 47.5411 48.3304 47.485L47.565 47.3246C47.0069 47.2284 46.2893 47.1803 45.468 47.2284C44.2401 47.2845 43.1558 47.5491 42.199 47.9982C41.1624 48.5114 40.2854 49.2331 39.5678 50.0992C38.8502 51.0294 38.3399 52.0478 37.9731 53.2827C37.6223 54.4535 37.4628 55.7846 37.4628 57.1158C37.4628 58.503 37.6223 59.7861 37.9811 60.9649C38.3479 62.1437 38.906 63.2102 39.5757 64.0923C40.094 64.7097 40.6521 65.2149 41.3299 65.68C41.6329 65.8885 42.2468 66.1932 42.2468 66.1932C42.2468 66.1932 42.2946 66.1932 42.2946 66.2414C42.3288 66.2414 42.3447 66.2575 42.3594 66.2724C42.3722 66.2854 42.3841 66.2975 42.4063 66.2975C42.9245 66.5541 43.4827 66.6984 44.1046 66.8107C45.8986 67.1635 47.4374 66.915 47.4374 66.915C48.2587 66.8107 49.0321 66.5541 49.7497 66.2414C50.8261 65.7281 51.6952 65.0145 52.4207 64.1404C53.1383 63.2743 53.6486 62.1918 54.0154 61.013C54.3662 59.8342 54.5177 58.5512 54.5177 57.1639C54.5177 55.7846 54.3184 54.5016 54.0074 53.3148L53.9835 53.3468ZM41.9677 54.4695C42.175 53.6676 42.4302 52.8898 42.789 52.2723C43.1478 51.6629 43.6102 51.1497 44.1205 50.7968C44.6388 50.436 45.2527 50.2355 45.9145 50.2355C46.5843 50.2355 47.1504 50.3798 47.6686 50.7407C48.1789 51.0935 48.5856 51.5426 48.9444 52.1199C49.3032 52.7374 49.5583 53.403 49.7656 54.2209C49.9809 55.0389 50.0846 55.8648 50.0846 56.787V57.0917C50.0846 58.0139 49.9809 58.9361 49.8294 59.754C49.6221 60.58 49.367 61.2937 49.0082 61.9191C48.6494 62.5286 48.1869 62.9857 47.6686 63.3465C47.1584 63.7074 46.5524 63.8597 45.8747 63.8597C45.2049 63.8597 44.5989 63.6993 44.0807 63.3465C43.5624 62.9857 43.0999 62.5286 42.7411 61.9031C42.3744 61.2937 42.1192 60.58 41.9119 59.754C41.7126 58.9361 41.6568 58.0139 41.6568 57.0917C41.7126 56.2096 41.8162 55.2955 41.9757 54.4775L41.9677 54.4695ZM22.5607 54.4695C22.7601 53.6676 23.0152 52.8898 23.374 52.2723C23.7328 51.6629 24.1953 51.1497 24.7135 50.7968C25.2238 50.436 25.8298 50.2355 26.5075 50.2355C27.1773 50.2355 27.7434 50.3798 28.2616 50.7407C28.764 51.0935 29.1786 51.5426 29.5374 52.1199C29.8962 52.7374 30.1513 53.403 30.3586 54.2209C30.5659 55.0389 30.6775 55.8648 30.6775 56.787L30.6616 57.0917C30.6616 58.0139 30.5659 58.9361 30.4065 59.754C30.2071 60.58 29.944 61.2937 29.5852 61.9191C29.2344 62.5286 28.7719 62.9857 28.2616 63.3465C27.7513 63.7074 27.1294 63.8597 26.4676 63.8597C25.7899 63.8597 25.176 63.6993 24.6577 63.3465C24.1474 62.9857 23.685 62.5286 23.3262 61.9031C23.0072 61.3979 22.768 60.6842 22.5528 59.8182C22.3454 58.9922 22.2896 58.054 22.2896 57.1398C22.2896 56.2176 22.3454 55.2955 22.5448 54.4775L22.5607 54.4695Z" fill="white"/>
</svg>
