<?xml version="1.0" standalone="no"?>
<!DOCTYPE svg PUBLIC "-//W3C//DTD SVG 20010904//EN"
 "http://www.w3.org/TR/2001/REC-SVG-20010904/DTD/svg10.dtd">
<svg version="1.0" xmlns="http://www.w3.org/2000/svg"
 width="280.000000pt" height="160.000000pt" viewBox="0 0 280.000000 160.000000"
 preserveAspectRatio="xMidYMid meet">

<g transform="translate(0.000000,160.000000) scale(0.100000,-0.100000)"
fill="#000000" stroke="none">
<path d="M1040 1145 c0 -63 -1 -115 -3 -115 -1 0 -20 9 -42 20 -48 24 -140 27
-192 5 -62 -26 -65 -32 -37 -72 13 -20 24 -42 24 -49 0 -9 12 -5 36 11 43 29
100 33 144 10 82 -42 82 -198 0 -240 -42 -22 -112 -19 -143 5 -29 23 -37 25
-37 7 0 -7 -11 -29 -25 -49 l-25 -36 47 -23 c63 -30 154 -31 210 -2 41 21 41
21 46 2 5 -17 13 -20 54 -17 l48 3 3 328 2 327 -55 0 -55 0 0 -115z"/>
<path d="M1274 1252 c-26 -17 -35 -51 -22 -79 19 -41 61 -52 96 -26 33 24 39
56 18 89 -17 24 -67 33 -92 16z"/>
<path d="M2307 1163 c-4 -3 -7 -26 -7 -50 l0 -43 70 0 70 0 0 -70 0 -70 55 0
55 0 0 120 0 120 -118 0 c-65 0 -122 -3 -125 -7z"/>
<path d="M1816 1081 c-25 -26 -31 -28 -58 -19 -16 6 -61 8 -100 6 -56 -4 -78
-11 -111 -34 -122 -86 -131 -290 -17 -373 38 -28 79 -40 187 -56 84 -13 121
-88 69 -140 -61 -61 -206 -25 -206 52 0 21 -4 23 -54 23 -30 0 -58 -4 -61 -10
-13 -22 18 -96 59 -136 68 -69 194 -86 292 -40 69 32 97 74 102 151 4 69 -17
112 -68 143 l-30 19 29 21 c67 50 91 173 50 259 l-21 43 23 31 22 32 -34 28
c-19 16 -37 29 -40 29 -3 0 -18 -13 -33 -29z m-67 -126 c63 -32 80 -148 30
-201 -76 -81 -219 -26 -219 83 0 47 27 101 59 118 34 19 95 19 130 0z"/>
<path d="M387 1060 c-75 -23 -143 -111 -154 -199 -17 -144 93 -265 242 -265
181 0 297 177 221 339 -25 54 -71 100 -123 122 -35 14 -142 16 -186 3z m154
-106 c32 -16 68 -81 69 -122 0 -68 -64 -132 -133 -132 -78 0 -129 50 -130 129
-2 109 99 174 194 125z"/>
<path d="M2135 1056 c-82 -36 -145 -130 -145 -217 0 -176 173 -290 343 -225
82 31 147 126 147 215 l0 32 -56 -3 -57 -3 -4 -38 c-7 -73 -57 -117 -130 -117
-69 0 -133 64 -133 132 1 66 63 138 120 138 17 0 20 6 20 50 l0 50 -37 0 c-21
-1 -51 -7 -68 -14z"/>
<path d="M1252 833 l3 -228 55 0 55 0 3 228 2 227 -60 0 -60 0 2 -227z"/>
</g>
</svg>
